<svg width="20" height="18" viewBox="0 0 20 18" fill="none" xmlns="http://www.w3.org/2000/svg">
<path d="M18.3383 5.66669H14.9951C14.0653 5.66669 13.3333 6.41842 13.3333 7.32841V10.6716H11.6716V2.32346C11.6716 1.39369 10.9199 0.661743 10.0099 0.661743H5.00495C4.07517 0.661743 3.34322 1.41347 3.34322 2.32346V10.6716H1.66172C0.751731 10.6716 0 11.4036 0 12.3334V15.6568C0 16.5866 0.751731 17.3185 1.66172 17.3185H18.3185C19.2483 17.3185 19.9802 16.5668 19.9802 15.6568V12.3334V7.32841C20 6.41842 19.2483 5.66669 18.3383 5.66669ZM9.99011 5.66669H8.32839V7.32841H6.66667V5.66669H5.00495V4.00497H6.66667V2.34325H8.32839V4.00497H9.99011V5.66669ZM17.5074 13.9951H12.5025C12.0475 13.9951 11.6716 13.6192 11.6716 13.1642C11.6716 12.7092 12.0475 12.3334 12.5025 12.3334H17.5074C17.9624 12.3334 18.3383 12.7092 18.3383 13.1642C18.3383 13.6192 17.9624 13.9951 17.5074 13.9951ZM17.5074 10.6716H15.8259C15.3709 10.6716 14.9951 10.2958 14.9951 9.84077C14.9951 9.38578 15.3709 9.00991 15.8259 9.00991H17.4876C17.9426 9.00991 18.3185 9.38578 18.3185 9.84077C18.3185 10.2958 17.9624 10.6716 17.5074 10.6716Z" fill="white"/>
</svg>
